<mxfile host="Electron" modified="2024-03-31T14:28:47.107Z" agent="Mozilla/5.0 (Windows NT 10.0; Win64; x64) AppleWebKit/537.36 (KHTML, like Gecko) draw.io/23.0.2 Chrome/120.0.6099.109 Electron/28.1.0 Safari/537.36" etag="SOhhP6cRzGLDCoYRhoIT" version="23.0.2" type="device">
  <diagram id="C5RBs43oDa-KdzZeNtuy" name="Page-1">
    <mxGraphModel dx="682" dy="437" grid="0" gridSize="10" guides="1" tooltips="1" connect="1" arrows="1" fold="1" page="1" pageScale="1" pageWidth="1169" pageHeight="827" math="0" shadow="0">
      <root>
        <mxCell id="WIyWlLk6GJQsqaUBKTNV-0" />
        <mxCell id="WIyWlLk6GJQsqaUBKTNV-1" parent="WIyWlLk6GJQsqaUBKTNV-0" />
        <mxCell id="WVS_Io7B3qZ9VJisClQ--8" value="" style="edgeStyle=orthogonalEdgeStyle;rounded=0;orthogonalLoop=1;jettySize=auto;html=1;" edge="1" parent="WIyWlLk6GJQsqaUBKTNV-1" source="WIyWlLk6GJQsqaUBKTNV-3" target="WVS_Io7B3qZ9VJisClQ--7">
          <mxGeometry relative="1" as="geometry" />
        </mxCell>
        <mxCell id="WIyWlLk6GJQsqaUBKTNV-3" value="获取姿态检测结果" style="rounded=1;whiteSpace=wrap;html=1;fontSize=12;glass=0;strokeWidth=1;shadow=0;" parent="WIyWlLk6GJQsqaUBKTNV-1" vertex="1">
          <mxGeometry x="160" y="240" width="120" height="50" as="geometry" />
        </mxCell>
        <mxCell id="WVS_Io7B3qZ9VJisClQ--20" style="edgeStyle=orthogonalEdgeStyle;rounded=0;orthogonalLoop=1;jettySize=auto;html=1;entryX=0;entryY=0.5;entryDx=0;entryDy=0;" edge="1" parent="WIyWlLk6GJQsqaUBKTNV-1" source="WVS_Io7B3qZ9VJisClQ--7" target="WVS_Io7B3qZ9VJisClQ--19">
          <mxGeometry relative="1" as="geometry" />
        </mxCell>
        <mxCell id="WVS_Io7B3qZ9VJisClQ--7" value="计算最小坐标" style="rounded=1;whiteSpace=wrap;html=1;fontSize=12;glass=0;strokeWidth=1;shadow=0;" vertex="1" parent="WIyWlLk6GJQsqaUBKTNV-1">
          <mxGeometry x="320" y="240" width="130" height="50" as="geometry" />
        </mxCell>
        <mxCell id="WVS_Io7B3qZ9VJisClQ--12" value="" style="edgeStyle=orthogonalEdgeStyle;rounded=0;orthogonalLoop=1;jettySize=auto;html=1;" edge="1" parent="WIyWlLk6GJQsqaUBKTNV-1" source="WVS_Io7B3qZ9VJisClQ--9" target="WVS_Io7B3qZ9VJisClQ--11">
          <mxGeometry relative="1" as="geometry" />
        </mxCell>
        <mxCell id="WVS_Io7B3qZ9VJisClQ--9" value="坐标归一化" style="rounded=1;whiteSpace=wrap;html=1;fontSize=12;glass=0;strokeWidth=1;shadow=0;" vertex="1" parent="WIyWlLk6GJQsqaUBKTNV-1">
          <mxGeometry x="650" y="241" width="120" height="49" as="geometry" />
        </mxCell>
        <mxCell id="WVS_Io7B3qZ9VJisClQ--14" value="" style="edgeStyle=orthogonalEdgeStyle;rounded=0;orthogonalLoop=1;jettySize=auto;html=1;" edge="1" parent="WIyWlLk6GJQsqaUBKTNV-1" source="WVS_Io7B3qZ9VJisClQ--11" target="WVS_Io7B3qZ9VJisClQ--13">
          <mxGeometry relative="1" as="geometry" />
        </mxCell>
        <mxCell id="WVS_Io7B3qZ9VJisClQ--11" value="展平坐标数组" style="rounded=1;whiteSpace=wrap;html=1;fontSize=12;glass=0;strokeWidth=1;shadow=0;" vertex="1" parent="WIyWlLk6GJQsqaUBKTNV-1">
          <mxGeometry x="650" y="321" width="120" height="45" as="geometry" />
        </mxCell>
        <mxCell id="WVS_Io7B3qZ9VJisClQ--17" value="" style="edgeStyle=orthogonalEdgeStyle;rounded=0;orthogonalLoop=1;jettySize=auto;html=1;" edge="1" parent="WIyWlLk6GJQsqaUBKTNV-1" source="WVS_Io7B3qZ9VJisClQ--13" target="WVS_Io7B3qZ9VJisClQ--16">
          <mxGeometry relative="1" as="geometry" />
        </mxCell>
        <mxCell id="WVS_Io7B3qZ9VJisClQ--13" value="计算坐标数组 L2 范数" style="rounded=1;whiteSpace=wrap;html=1;fontSize=12;glass=0;strokeWidth=1;shadow=0;" vertex="1" parent="WIyWlLk6GJQsqaUBKTNV-1">
          <mxGeometry x="480" y="320" width="140" height="46" as="geometry" />
        </mxCell>
        <mxCell id="WVS_Io7B3qZ9VJisClQ--23" value="" style="edgeStyle=orthogonalEdgeStyle;rounded=0;orthogonalLoop=1;jettySize=auto;html=1;" edge="1" parent="WIyWlLk6GJQsqaUBKTNV-1" source="WVS_Io7B3qZ9VJisClQ--16" target="WVS_Io7B3qZ9VJisClQ--22">
          <mxGeometry relative="1" as="geometry" />
        </mxCell>
        <mxCell id="WVS_Io7B3qZ9VJisClQ--16" value="坐标数组归一化" style="whiteSpace=wrap;html=1;rounded=1;glass=0;strokeWidth=1;shadow=0;" vertex="1" parent="WIyWlLk6GJQsqaUBKTNV-1">
          <mxGeometry x="320" y="320" width="130" height="46" as="geometry" />
        </mxCell>
        <mxCell id="WVS_Io7B3qZ9VJisClQ--21" style="edgeStyle=orthogonalEdgeStyle;rounded=0;orthogonalLoop=1;jettySize=auto;html=1;exitX=1;exitY=0.5;exitDx=0;exitDy=0;entryX=0;entryY=0.5;entryDx=0;entryDy=0;" edge="1" parent="WIyWlLk6GJQsqaUBKTNV-1" source="WVS_Io7B3qZ9VJisClQ--19" target="WVS_Io7B3qZ9VJisClQ--9">
          <mxGeometry relative="1" as="geometry" />
        </mxCell>
        <mxCell id="WVS_Io7B3qZ9VJisClQ--19" value="拷贝姿态检测结果" style="rounded=1;whiteSpace=wrap;html=1;" vertex="1" parent="WIyWlLk6GJQsqaUBKTNV-1">
          <mxGeometry x="480" y="241" width="140" height="49" as="geometry" />
        </mxCell>
        <mxCell id="WVS_Io7B3qZ9VJisClQ--31" value="" style="edgeStyle=orthogonalEdgeStyle;rounded=0;orthogonalLoop=1;jettySize=auto;html=1;" edge="1" parent="WIyWlLk6GJQsqaUBKTNV-1" source="WVS_Io7B3qZ9VJisClQ--22" target="WVS_Io7B3qZ9VJisClQ--30">
          <mxGeometry relative="1" as="geometry" />
        </mxCell>
        <mxCell id="WVS_Io7B3qZ9VJisClQ--22" value="提取置信度信息" style="whiteSpace=wrap;html=1;rounded=1;glass=0;strokeWidth=1;shadow=0;" vertex="1" parent="WIyWlLk6GJQsqaUBKTNV-1">
          <mxGeometry x="160" y="320" width="120" height="46" as="geometry" />
        </mxCell>
        <mxCell id="WVS_Io7B3qZ9VJisClQ--27" value="" style="edgeStyle=orthogonalEdgeStyle;rounded=0;orthogonalLoop=1;jettySize=auto;html=1;" edge="1" parent="WIyWlLk6GJQsqaUBKTNV-1" source="WVS_Io7B3qZ9VJisClQ--24" target="WVS_Io7B3qZ9VJisClQ--26">
          <mxGeometry relative="1" as="geometry" />
        </mxCell>
        <mxCell id="WVS_Io7B3qZ9VJisClQ--24" value="生成最终归一化向量" style="whiteSpace=wrap;html=1;rounded=1;glass=0;strokeWidth=1;shadow=0;" vertex="1" parent="WIyWlLk6GJQsqaUBKTNV-1">
          <mxGeometry x="320" y="400" width="130" height="50" as="geometry" />
        </mxCell>
        <mxCell id="WVS_Io7B3qZ9VJisClQ--26" value="返回结果" style="whiteSpace=wrap;html=1;rounded=1;glass=0;strokeWidth=1;shadow=0;" vertex="1" parent="WIyWlLk6GJQsqaUBKTNV-1">
          <mxGeometry x="480" y="400" width="140" height="50" as="geometry" />
        </mxCell>
        <mxCell id="WVS_Io7B3qZ9VJisClQ--32" value="" style="edgeStyle=orthogonalEdgeStyle;rounded=0;orthogonalLoop=1;jettySize=auto;html=1;" edge="1" parent="WIyWlLk6GJQsqaUBKTNV-1" source="WVS_Io7B3qZ9VJisClQ--30" target="WVS_Io7B3qZ9VJisClQ--24">
          <mxGeometry relative="1" as="geometry" />
        </mxCell>
        <mxCell id="WVS_Io7B3qZ9VJisClQ--30" value="计算置信度总和" style="rounded=1;whiteSpace=wrap;html=1;" vertex="1" parent="WIyWlLk6GJQsqaUBKTNV-1">
          <mxGeometry x="160" y="400" width="120" height="50" as="geometry" />
        </mxCell>
      </root>
    </mxGraphModel>
  </diagram>
</mxfile>
